# xmcd
#
# Track frame offsets:
# 182
# 11517
# 34580
# 45697
# 67060
# 77100
# 89042
# 110885
# 118910
# 134492
# 146910
# 157160
# 172635
# 183845
# 199657
# 210917
# 223497
#
# Disc length: 3134 seconds
#
# Revision: 0
# Processed by: cddbd v1.5.1PL0 Copyright (c) Steve Scherf et al.
# Submitted via: Audion 3.0.2 (http://www.panic.com/audion/)
#
DISCID=030c3c11
DTITLE=Dinah Washington - 16 Greatest Hits
DYEAR=1900
DGENRE=
TTITLE0=What a Difference a day Makes
TTITLE1=Willow weeps for me
TTITLE2=On the Sunnyside of the Street
TTITLE3=Close to You
TTITLE4=Where are you
TTITLE5=Keeping out of Mischief
TTITLE6=What's New?
TTITLE7=Jitterburg Waltz
TTITLE8=T'ain't Nobody's Biz-ness if I do
TTITLE9=You're Nobody Til Somebody Loves You
TTITLE10=Sometimes I'm Happy
TTITLE11=Smoke GetsIn Your Eyes
TTITLE12=Cry me a River
TTITLE13=Drinking Again
TTITLE14=I cried for you
TTITLE15=Look to the Rainbow
TTITLE16=Ain't Misbehavin'
EXTD=
EXTT0=
EXTT1=
EXTT2=
EXTT3=
EXTT4=
EXTT5=
EXTT6=
EXTT7=
EXTT8=
EXTT9=
EXTT10=
EXTT11=
EXTT12=
EXTT13=
EXTT14=
EXTT15=
EXTT16=
PLAYORDER=
